<mxfile host="app.diagrams.net" modified="2023-07-27T10:59:54.146Z" agent="Mozilla/5.0 (Windows NT 10.0; Win64; x64) AppleWebKit/537.36 (KHTML, like Gecko) Chrome/115.0.0.0 Safari/537.36" version="21.3.8" etag="2ANqMIVYT9AXCuqbw-Gw" type="github">
  <diagram name="Page-1" id="T_lI3t8ODBeXY_WtDTFh">
    <mxGraphModel>
      <root>
        <mxCell id="0" />
        <mxCell id="1" parent="0" />
      </root>
    </mxGraphModel>
  </diagram>
</mxfile>
